# xmcd
#
# Track frame offsets: 
#        150
#        10890
#        22914
#        40140
#        52730
#        68959
#        84182
#        99094
#        113324
#        127065
#        141081
#        153572
#        172309
#        185083
#        200967
#        216091
#        229473
#        243131
#        258901
#
# Disc length: 3627 seconds
#
# Revision: 2
# Processed by: cddbd v1.5.2PL0 Copyright (c) Steve Scherf et al.
# Submitted via: ExactAudioCopy v0.99pb4
#
DISCID=010e2913
DTITLE=Various Artist - Route 66 - The Cities Where Jazz Was Born [CD 2 of 3)
DYEAR=2001
DGENRE=Jazz
TTITLE0=Moten Swing - Count Basie
TTITLE1=Swingmatism - Jay Mcshann
TTITLE2=Pagin' the Devil - Kansas City Six
TTITLE3=I know how to do it - Sam Price
TTITLE4=Just a little way to stay here - George Lewis
TTITLE5=Franklin Street Blues - Louis Dumaine's Jazzola Eight
TTITLE6=African Jungle - Jungle Town Stompers
TTITLE7=Rockin' chair - Louis Armstrong and Jack Teagarden
TTITLE8=Coquette - John Kirby
TTITLE9=Squeeze me - Fats Waller
TTITLE10=Somebody loves me - Errol Garner
TTITLE11=Out of Nowhere - Charlie Parker
TTITLE12=Ring them bells - Cootie Williams with Duke Ellington
TTITLE13=There' a cabin in the cotton - Cab Calloway
TTITLE14=Boogie Woogie Stride - James P Johnson
TTITLE15=Jungle nights in Harlem - Duke Ellington
TTITLE16=Harlem after midnight - Mills Blues Rhythm Band
TTITLE17=Harlem on my mind - Ethel Waters
TTITLE18=Harlem Rhumbain' the blues - Hot Lips Page
EXTD=
EXTT0=
EXTT1=
EXTT2=
EXTT3=
EXTT4=
EXTT5=
EXTT6=
EXTT7=
EXTT8=
EXTT9=
EXTT10=
EXTT11=
EXTT12=
EXTT13=
EXTT14=
EXTT15=
EXTT16=
EXTT17=
EXTT18=
PLAYORDER=
